<svg width="24" height="24" viewBox="0 0 24 24" fill="none" xmlns="http://www.w3.org/2000/svg">
<g id="&#232;&#176;&#183;&#230;&#173;&#140; 1" clip-path="url(#clip0_86_233)">
<path id="Vector" d="M4.9968 12.0816C4.9968 11.2968 5.1288 10.5444 5.3628 9.8388L1.2528 6.73019C0.426059 8.39278 -0.00282472 10.2248 1.40004e-05 12.0816C1.40004e-05 14.0046 0.450014 15.8184 1.2504 17.4288L5.35921 14.3148C5.11921 13.5948 4.99741 12.8406 4.9968 12.0816Z" fill="#FBBC05"/>
<path id="Vector_2" d="M12.2167 4.944C13.8542 4.94071 15.4427 5.50276 16.7137 6.53519L20.2675 3.02161C18.1021 1.15561 15.3259 0.00180054 12.2168 0.00180054C7.38915 0.00180054 3.23954 2.736 1.25293 6.73019L5.36593 9.83882C6.31274 6.99121 9.01273 4.94343 12.2179 4.94343" fill="#EA4335"/>
<path id="Vector_3" d="M12.269 19.0602C9.047 19.0602 6.3338 17.0256 5.381 14.1954L1.25 17.2854C3.24622 21.255 7.41622 23.9712 12.269 23.9712C15.2624 23.9712 18.1208 22.9308 20.267 20.9796L16.3448 18.0108C15.239 18.693 13.8452 19.0608 12.2678 19.0608" fill="#34A853"/>
<path id="Vector_4" d="M23.9868 11.9676C23.9868 11.2584 23.8746 10.494 23.7078 9.78481H12.2676V14.4228H18.852C18.5238 16.0044 17.628 17.22 16.3452 18.0108L20.2668 20.9796C22.521 18.9318 23.9868 15.8808 23.9868 11.9676Z" fill="#4285F4"/>
</g>
<defs>
<clipPath id="clip0_86_233">
<rect width="24" height="24" fill="white"/>
</clipPath>
</defs>
</svg>
