<svg width="60" height="70" viewBox="0 0 60 70" fill="none" xmlns="http://www.w3.org/2000/svg">
<g id="zip_&#229;&#176;&#143;">
<path id="Subtract" fill-rule="evenodd" clip-rule="evenodd" d="M8 0C3.58172 0 0 3.58172 0 8V62C0 66.4183 3.58172 70 8 70H52C56.4183 70 60 66.4183 60 62V8C60 7.99051 60 7.98102 60 7.97153V24.0875L36 0H8Z" fill="url(#paint0_linear_115_62)"/>
<path id="Rectangle 33" d="M36 0L60 24.0875H48C41.3726 24.0875 36 18.7149 36 12.0875V0Z" fill="#D1E8FC"/>
<g id="Group 5">
<rect id="Rectangle 35" x="25" y="2.83386" width="3.52941" height="2.83382" rx="1" fill="#364062"/>
<rect id="Rectangle 36" x="25" y="8.50146" width="3.52941" height="2.83382" rx="1" fill="#364062"/>
<rect id="Rectangle 37" x="25" y="14.1691" width="3.52941" height="2.83382" rx="1" fill="#364062"/>
<rect id="Rectangle 38" x="25" y="19.8368" width="3.52941" height="2.83382" rx="1" fill="#364062"/>
<rect id="Rectangle 39" x="25" y="25.5044" width="3.52941" height="2.83382" rx="1" fill="#364062"/>
<rect id="Rectangle 40" x="29.9412" width="3.52941" height="2.83382" rx="1" fill="#364062"/>
<rect id="Rectangle 41" x="29.9412" y="5.6676" width="3.52941" height="2.83382" rx="1" fill="#364062"/>
<rect id="Rectangle 42" x="29.9412" y="11.3353" width="3.52941" height="2.83382" rx="1" fill="#364062"/>
<rect id="Rectangle 43" x="29.9412" y="17.0029" width="3.52941" height="2.83382" rx="1" fill="#364062"/>
<rect id="Rectangle 44" x="29.9412" y="22.6705" width="3.52941" height="2.83382" rx="1" fill="#364062"/>
<rect id="Rectangle 45" x="25" y="30.4635" width="9.17647" height="5.66764" rx="2" fill="#364062"/>
</g>
<path id="Zip" d="M23.4 56.8834V56.1034L27.07 51.0734H23.58V50.0034H28.74V50.7834L25.05 55.8134H28.82V56.8834H23.4ZM30.0086 56.8834V51.8834H31.2886V56.8834H30.0086ZM29.9186 50.5034C29.9186 50.0734 30.2186 49.7734 30.6486 49.7734C31.0686 49.7734 31.3786 50.0734 31.3786 50.5034C31.3786 50.9234 31.0686 51.2234 30.6486 51.2234C30.2186 51.2234 29.9186 50.9234 29.9186 50.5034ZM36.1844 54.3834C36.1844 53.4834 35.6844 52.8634 34.9644 52.8634C34.6144 52.8634 34.2644 53.0134 33.9644 53.3134V55.4534C34.2644 55.7534 34.6144 55.9034 34.9644 55.9034C35.6844 55.9034 36.1844 55.2834 36.1844 54.3834ZM32.6844 59.0734V51.8834H33.9644V52.2234C34.3644 51.9234 34.8044 51.7634 35.2344 51.7634C36.5744 51.7634 37.4944 52.8434 37.4944 54.3834C37.4944 55.9234 36.5744 57.0034 35.2344 57.0034C34.8044 57.0034 34.3644 56.8434 33.9644 56.5334V59.0734H32.6844Z" fill="#364062"/>
</g>
<defs>
<linearGradient id="paint0_linear_115_62" x1="30" y1="0" x2="30" y2="69.4286" gradientUnits="userSpaceOnUse">
<stop stop-color="#FFFEFE"/>
<stop offset="1" stop-color="#DAF0FE"/>
</linearGradient>
</defs>
</svg>
